#!OML:ASF F:\VICON\USERDATA\INSTALL\rory3\rory3.ASF
:FULLY-SPECIFIED
:DEGREES
250
root 0.972835 18.134 0.191225 50.1508 87.8981 51.6223
lowerback 10.1715 0.575458 -2.36969
upperback 0.517185 0.494136 -0.501405
thorax -5.18365 0.306136 0.738831
lowerneck -21.8674 -6.95151 -12.9284
upperneck 27.3566 -7.85498 9.03343
head 13.8863 -3.46443 4.35589
rclavicle 7.85821e-016 1.0635e-014
rhumerus -33.638 -8.45481 -85.689
rradius 37.2599
rwrist 4.78079
rhand -12.8192 10.2847
rfingers 7.12502
rthumb 13.2675 -19.273
lclavicle 7.85821e-016 1.0635e-014
lhumerus -36.9185 7.8111 80.132
lradius 33.0244
lwrist -4.03385
lhand -17.783 24.0973
lfingers 7.12502
lthumb 8.47972 53.9071
rfemur -10.3902 5.37867 16.3146
rtibia 31.4093
rfoot -17.5502 1.53599
rtoes -1.18152
lfemur 1.28514 -2.69137 -25.3504
ltibia 8.04237
lfoot -4.16924 -2.53267
ltoes -2.34954
251
root 0.990946 18.1477 0.203684 55.4056 87.9058 56.8459
lowerback 10.1055 0.561643 -2.62247
upperback 0.520677 0.447962 -0.527085
thorax -5.14347 0.288781 0.861486
lowerneck -21.7959 -6.87699 -12.8053
upperneck 27.2674 -7.75761 8.91229
head 13.8065 -3.42725 4.30176
rclavicle 3.24267e-015 -5.41688e-015
rhumerus -33.6609 -8.2082 -85.8044
rradius 37.0152
rwrist 4.51879
rhand -12.8324 10.4031
rfingers 7.12502
rthumb 13.2547 -19.1555
lclavicle 3.24267e-015 -5.41688e-015
lhumerus -37 7.71212 80.2464
lradius 33.1552
lwrist -3.71377
lhand -18.3746 24.5445
lfingers 7.12502
lthumb 7.9088 54.3765
rfemur -10.4613 5.46226 16.2095
rtibia 30.9933
rfoot -17.5774 2.45478
rtoes 0.303546
lfemur 1.25962 -2.50457 -25.3484
ltibia 8.33792
lfoot -4.19619 -3.26152
ltoes 5.95347
252
root 1.00785 18.1494 0.215917 58.096 88.0619 59.6258
lowerback 10.0984 0.597465 -2.64489
upperback 0.622658 0.499042 -0.488198
thorax -5.03481 0.313629 0.907963
lowerneck -21.8355 -6.89929 -12.9242
upperneck 27.2227 -7.76185 8.98321
head 13.8064 -3.43164 4.3481
rclavicle -2.3233e-015 6.75868e-015
rhumerus -33.5679 -8.2787 -85.7307
rradius 36.726
rwrist 4.29368
rhand -12.76 10.3708
rfingers 7.12502
rthumb 13.3246 -19.1832
lclavicle -2.3233e-015 6.75868e-015
lhumerus -36.908 7.61716 80.4466
lradius 33.2179
lwrist -3.64105
lhand -18.5695 24.8609
lfingers 7.12502
lthumb 7.7207 54.7
rfemur -10.4371 5.60246 16.3746
rtibia 30.6693
rfoot -17.7499 3.19736
rtoes 0.869008
lfemur 1.38448 -2.31588 -25.2047
ltibia 8.47546
lfoot -4.00437 -3.94374
ltoes 10.6949
253
root 1.02172 18.1513 0.224603 60.253 88.2182 61.8789
lowerback 10.1345 0.6378 -2.59515
upperback 0.711785 0.563028 -0.436597
thorax -4.96391 0.343777 0.924866
lowerneck -21.8969 -6.94291 -13.2385
upperneck 27.2625 -7.77815 9.22295
head 13.8679 -3.43848 4.49836
rclavicle 5.33613e-015 -2.98177e-016
rhumerus -33.4731 -8.3898 -85.5786
rradius 36.3879
rwrist 4.14996
rhand -12.4844 10.331
rfingers 7.12502
rthumb 13.5902 -19.2055
lclavicle 5.33613e-015 -2.98177e-016
lhumerus -36.8174 7.73936 80.5956
lradius 33.2126
lwrist -3.75735
lhand -18.5648 24.8554
lfingers 7.12502
lthumb 7.72523 54.6943
rfemur -10.3792 5.54952 16.5777
rtibia 30.2305
rfoot -17.8605 4.11049
rtoes -0.081319
lfemur 1.44601 -2.10339 -25.0521
ltibia 8.73069
lfoot -4.2572 -4.19796
ltoes 12.4049
254
root 1.03555 18.1444 0.2323 66.2064 88.323 67.855
lowerback 10.1346 0.644231 -2.62126
upperback 0.722614 0.570751 -0.400958
thorax -4.95353 0.348364 0.975699
lowerneck -21.8526 -6.96031 -13.3904
upperneck 27.3284 -7.76849 9.27213
head 13.8964 -3.4443 4.54968
rclavicle -3.07495e-015 3.47873e-015
rhumerus -33.5185 -8.52693 -85.4359
rradius 36.1126
rwrist 4.09006
rhand -12.1098 10.2364
rfingers 7.12502
rthumb 13.9512 -19.2755
lclavicle -3.07495e-015 3.47873e-015
lhumerus -36.8504 7.81438 80.7563
lradius 33.2286
lwrist -3.86624
lhand -18.4314 24.7569
lfingers 7.12502
lthumb 7.854 54.591
rfemur -10.3889 5.47876 16.6537
rtibia 29.8439
rfoot -17.9749 4.95676
rtoes -2.19689
lfemur 1.38869 -1.9623 -25.0378
ltibia 8.92225
lfoot -5.01257 -3.89245
ltoes 7.71523
